Coordinates
version=1
nRows=14
nColumns=24
inDegrees=yes

Units are S.I. units (second, meters, Newtons, ...)
Angles are in degrees.

endheader
time	pelvis_tilt	pelvis_list	pelvis_rotation	pelvis_tx	pelvis_ty	pelvis_tz	hip_flexion_r	hip_adduction_r	hip_rotation_r	knee_angle_r	ankle_angle_r	subtalar_angle_r	mtp_angle_r	hip_flexion_l	hip_adduction_l	hip_rotation_l	knee_angle_l	ankle_angle_l	subtalar_angle_l	mtp_angle_l	lumbar_extension	lumbar_bending	lumbar_rotation
      4.70000000	     -3.52309550	     -4.77998708	     -2.93298068	     -1.66164248	      0.70615814	      0.20926216	      3.07025268	      9.99010173	     17.57429255	     -3.62028096	      9.32527135	    -14.77720425	      0.00000000	     26.65261126	     -2.16161171	     -3.06373405	    -63.57532954	      4.59340059	     -0.55534889	      0.00000000	    -10.00195034	      8.33950558	     -2.77619996
      4.71000000	     -3.59847316	     -4.37918690	     -3.26425329	     -1.64894683	      0.70650441	      0.21009526	      1.58048400	      9.46004270	     18.29821726	     -2.78862872	      9.61434387	    -15.14072978	      0.00000000	     28.00840194	     -1.87825473	     -3.63119354	    -61.24498151	      5.94724374	     -2.04286344	      0.00000000	    -10.30160736	      7.73312764	     -2.21024227
      4.72000000	     -3.57955247	     -4.06738860	     -3.60236588	     -1.63639932	      0.70664615	      0.21086890	      0.03768521	      8.99996525	     19.08517858	     -2.02196729	      9.86060911	    -15.59907404	      0.00000000	     29.06789630	     -1.65068957	     -4.03781315	    -58.46797343	      6.95217591	     -3.63727042	      0.00000000	    -10.79325595	      7.23388755	     -1.56727991
      4.73000000	     -3.67836633	     -3.84626608	     -3.91777479	     -1.62385475	      0.70635888	      0.21162822	     -1.30159011	      8.66110360	     19.56017711	     -1.39082946	     10.22680238	    -15.80717164	      0.00000000	     30.05306029	     -1.51061095	     -4.31773935	    -55.24781604	      7.60583841	     -5.30790721	      0.00000000	    -11.12607634	      6.84407102	     -1.09875990
      4.74000000	     -3.77651459	     -3.70957656	     -4.22190365	     -1.61128804	      0.70579906	      0.21231816	     -2.59264226	      8.41403590	     19.92713137	     -0.86674418	     10.68076327	    -15.90318936	      0.00000000	     30.79810053	     -1.40574528	     -4.39352933	    -51.55554021	      7.98215638	     -6.92304294	      0.00000000	    -11.44647533	      6.56464485	     -0.63750133
      4.75000000	     -3.95032745	     -3.68200189	     -4.51119166	     -1.59862730	      0.70486758	      0.21295019	     -3.77984693	      8.29060018	     20.16168550	     -0.41564801	     11.16406501	    -15.87821666	      0.00000000	     31.38224672	     -1.36569987	     -4.22727899	    -47.42603096	      8.20879798	     -8.38607886	      0.00000000	    -11.64325363	      6.41780134	     -0.24410825
      4.76000000	     -3.93157895	     -3.73604135	     -4.79547068	     -1.58591775	      0.70395760	      0.21345513	     -5.14439158	      8.22789832	     20.33278159	     -0.05289734	     11.67522447	    -15.74080813	      0.00000000	     31.45973756	     -1.32128618	     -3.75960326	    -42.78052047	      8.29033720	     -9.73126484	      0.00000000	    -12.10096248	      6.36233225	      0.24786167
      4.77000000	     -4.19058430	     -3.83393288	     -5.11355973	     -1.57288791	      0.70252763	      0.21398981	     -6.21097450	      8.22289144	     20.50956875	      0.23836533	     12.16062935	    -15.49371338	      0.00000000	     31.51776176	     -1.32572402	     -2.99745895	    -37.65473220	      8.25388552	    -10.83557588	      0.00000000	    -12.06677557	      6.38849884	      0.62162656
      4.78000000	     -4.24939167	     -4.02673543	     -5.46396868	     -1.55968233	      0.70113348	      0.21443689	     -7.49003951	      8.27543672	     20.61641663	      0.46770343	     12.69868317	    -15.04482830	      0.00000000	     31.01038157	     -1.37540487	     -1.76334183	    -32.02843298	      8.04617826	    -12.06425361	      0.00000000	    -12.27598057	      6.52872909	      1.11087838
      4.79000000	     -4.04893868	     -4.25449556	     -5.74545020	     -1.54607706	      0.69984103	      0.21493372	     -9.05949882	      8.34457722	     20.52148172	      0.62988287	     13.31583188	    -14.32689729	      0.00000000	     29.83446714	     -1.43982836	      0.14444748	    -25.89667913	      7.61581861	    -13.41132895	      0.00000000	    -12.68990437	      6.61670121	      1.52364243
      4.80000000	     -4.08924931	     -4.64152680	     -6.30074166	     -1.53218901	      0.69804640	      0.21573078	    -10.35077421	      8.54909793	     20.75967073	      0.63326128	     13.92261008	    -13.50260533	      0.00000000	     28.54255318	     -1.89540886	      2.68076965	    -19.37927044	      6.61235372	    -15.70119140	      0.00000000	    -12.74377617	      6.91117700	      2.24694053
      4.81000000	     -3.91896770	     -5.18875255	     -6.88656625	     -1.51795778	      0.69626068	      0.21686133	    -11.86566420	      8.89549294	     20.94616845	      0.49335243	     14.54450083	    -12.37805367	      0.00000000	     26.67625753	     -2.76549774	      6.15830962	    -12.57814050	      4.66900473	    -19.12969541	      0.00000000	    -13.01649757	      7.27476823	      3.00361840
      4.82000000	     -3.88477187	     -6.09303058	     -7.49565392	     -1.50357943	      0.69391563	      0.21849648	    -13.21168988	      9.67519845	     21.17273800	      0.12063621	     15.10864828	    -11.20663557	      0.00000000	     25.00171014	     -4.40865164	      9.32502722	     -6.19902529	      2.66616842	    -22.47944004	      0.00000000	    -13.11758019	      7.98381257	      3.80942774
      4.83000000	     -4.11830461	     -7.20169579	     -8.06106257	     -1.48917414	      0.69106811	      0.22034091	    -14.22202970	     10.73276805	     21.45563469	     -0.47072653	     15.50184264	    -10.10211973	      0.00000000	     23.99941070	     -6.43458850	     10.91496218	     -0.85703417	      1.72582166	    -23.75181206	      0.00000000	    -12.90463549	      8.93148750	      4.59101433
